<?xml version="1.0" encoding="UTF-8" standalone="no"?>
<svg
   xmlns:dc="http://purl.org/dc/elements/1.1/"
   xmlns:cc="http://creativecommons.org/ns#"
   xmlns:rdf="http://www.w3.org/1999/02/22-rdf-syntax-ns#"
   xmlns:svg="http://www.w3.org/2000/svg"
   xmlns="http://www.w3.org/2000/svg"
   xmlns:sodipodi="http://sodipodi.sourceforge.net/DTD/sodipodi-0.dtd"
   xmlns:inkscape="http://www.inkscape.org/namespaces/inkscape"
   height="16px"
   viewBox="0 0 16 16"
   width="16px"
   version="1.1"
   id="svg10"
   sodipodi:docname="org.grapik.Quran.symbolic.svg"
   inkscape:version="1.0.2 (e86c870879, 2021-01-15)">
  <metadata
     id="metadata16">
    <rdf:RDF>
      <cc:Work
         rdf:about="">
        <dc:format>image/svg+xml</dc:format>
        <dc:type
           rdf:resource="http://purl.org/dc/dcmitype/StillImage" />
        <dc:title></dc:title>
      </cc:Work>
    </rdf:RDF>
  </metadata>
  <defs
     id="defs14" />
  <sodipodi:namedview
     pagecolor="#ffffff"
     bordercolor="#666666"
     borderopacity="1"
     objecttolerance="10"
     gridtolerance="10"
     guidetolerance="10"
     inkscape:pageopacity="0"
     inkscape:pageshadow="2"
     inkscape:window-width="1920"
     inkscape:window-height="1016"
     id="namedview12"
     showgrid="false"
     inkscape:zoom="42"
     inkscape:cx="8"
     inkscape:cy="8"
     inkscape:window-x="0"
     inkscape:window-y="27"
     inkscape:window-maximized="1"
     inkscape:current-layer="svg10" />
  <g
     fill="#77767b"
     id="g8">
    <path
       d="m 1 3 c 0 -1.101562 1.046875 -2 2 -2 h 6 l 2 9 h -10 z m 0 0"
       id="path2" />
    <path
       d="m 5.0625 6 l 0.738281 9 h 7.808594 c 0.6875 0 1.390625 -0.65625 1.390625 -1.46875 v -5.972656 c 0 -0.835938 -0.640625 -1.558594 -1.378906 -1.558594 z m 2.003906 2 h 5.871094 c 0.050781 0 0.0625 0.011719 0.0625 0.0625 v 4.871094 c 0 0.054687 -0.011719 0.066406 -0.0625 0.066406 h -5.871094 c 0.496094 -0.9375 -0.0625 0.914062 -0.0625 -0.066406 v -4.871094 c 0 -0.050781 0.011719 -0.0625 0.0625 -0.0625 z m 0 0"
       id="path4" />
    <path
       d="m 11 10 l -4 4 l -1.199219 1 l -1.214843 -5 z m 0 0"
       id="path6" />
  </g>
</svg>
